<?xml version="1.0" encoding="UTF-8" standalone="no"?>
<!-- Created with Inkscape (http://www.inkscape.org/) -->

<svg
   width="256"
   height="256"
   viewBox="0 0 67.733332 67.733335"
   version="1.1"
   id="svg5"
   inkscape:version="1.1.2 (b8e25be833, 2022-02-05)"
   sodipodi:docname="wiwari-logo-css.svg"
   inkscape:export-filename="C:\Powen\wiwari-logo\wwr-512x512.png"
   inkscape:export-xdpi="192"
   inkscape:export-ydpi="192"
   xmlns:inkscape="http://www.inkscape.org/namespaces/inkscape"
   xmlns:sodipodi="http://sodipodi.sourceforge.net/DTD/sodipodi-0.dtd"
   xmlns="http://www.w3.org/2000/svg"
   xmlns:svg="http://www.w3.org/2000/svg">
  <sodipodi:namedview
     id="namedview7"
     pagecolor="#ffffff"
     bordercolor="#666666"
     borderopacity="1.0"
     inkscape:pageshadow="2"
     inkscape:pageopacity="0.0"
     inkscape:pagecheckerboard="0"
     inkscape:document-units="px"
     showgrid="false"
     inkscape:zoom="1.2810466"
     inkscape:cx="195.54324"
     inkscape:cy="132.31369"
     inkscape:window-width="1920"
     inkscape:window-height="1001"
     inkscape:window-x="-9"
     inkscape:window-y="-9"
     inkscape:window-maximized="1"
     inkscape:current-layer="layer3"
     inkscape:snap-global="true"
     inkscape:snap-bbox="false"
     inkscape:snap-smooth-nodes="true"
     inkscape:snap-midpoints="true"
     units="px"
     width="256px"
     inkscape:bbox-paths="true"
     inkscape:bbox-nodes="true" />
  <defs
     id="defs2" />
  <g
     inkscape:groupmode="layer"
     id="layer3"
     inkscape:label="SKETCH"
     style="display:inline" />
  <g
     inkscape:groupmode="layer"
     id="layer5"
     inkscape:label="BOUND"
     style="display:inline" />
  <g
     inkscape:groupmode="layer"
     id="layer4"
     inkscape:label="FILL"
     style="display:inline">
    <path
       style="opacity:1;fill:#00ccff;stroke:none;stroke-width:1.54903;stroke-miterlimit:4;stroke-dasharray:none;stop-color:#000000"
       d="m 26.763453,42.940143 c -4.944899,-3.05854 -13.966844,-8.24025 -13.966844,-8.24025 2.505184,-1.88357 6.759189,-5.46353 6.759189,-5.46353 0,0 -4.526441,-2.29382 -7.030881,-3.49902 -2.275504,-1.09504 -4.6686702,-2.50251 -4.6686702,-2.50251 l 2.5926352,-1.4066 c 0,0 10.261407,4.93197 15.558436,7.02106 l 1.684558,-0.47966 -2.565863,-4.91454 5.386424,2.7487 1.717683,-0.83683 C 27.3632,20.452043 17.379163,10.554153 17.379163,10.554153 18.653442,9.9610334 21.961509,8.6051133 21.961509,8.6051133 l 16.293187,15.5502997 1.229944,-0.63728 -2.47152,-5.31426 6.468731,4.71353 1.041014,-0.78139 c 0,0 -5.925431,-7.38694 -9.568521,-11.57139 l 3.137847,-1.6552097 2.502167,3.2693797 4.272227,5.83574 c 0,0 2.110312,-0.47014 3.897858,0.36936 1.787546,0.8395 4.147396,4.83288 3.114974,6.87809 -1.03242,2.04521 -2.659049,4.37269 -4.161309,6.0187 -1.730385,1.89596 -8.855754,6.29083 -8.855754,6.29083 l 20.09032,6.58917 -1.068208,3.85387 -4.004027,-0.64845 -0.935013,3.84599 -3.697767,-0.53405 -1.563333,3.68741 -3.848719,-0.75117 -2.406356,3.341134 c 0,0 -11.170629,-11.297744 -14.665798,-14.015274 z"
       id="path27308"
       sodipodi:nodetypes="cccccccccccccccccccccczzscccccccccc" />
    <path
       style="fill:#00ffcc;stroke:none;stroke-width:0.264583px;stroke-linecap:butt;stroke-linejoin:miter;stroke-opacity:1"
       d="m 12.397916,20.764483 9.307067,-4.9827 5.886301,6.62209 -5.163421,4.02747 z"
       id="path35888"
       sodipodi:nodetypes="ccccc" />
    <path
       style="fill:#00ffcc;stroke:none;stroke-width:0.264583px;stroke-linecap:butt;stroke-linejoin:miter;stroke-opacity:1"
       d="m 28.139898,12.302933 5.14406,-2.7688897 6.28647,7.7064097 -4.33728,2.58171 z"
       id="path36078"
       sodipodi:nodetypes="ccccc" />
  </g>
  <g
     inkscape:groupmode="layer"
     id="layer2"
     inkscape:label="logo"
     style="display:inline;mix-blend-mode:normal">
    <path
       style="fill:#000000;stroke:none;stroke-width:0.264583px;stroke-linecap:butt;stroke-linejoin:miter;stroke-opacity:1"
       d="m 23.460548,6.3972733 c 0,0 5.142895,5.8683097 7.19183,7.8578897 2.04894,1.98958 5.32978,4.17029 5.32978,4.17029 l -1.16189,-2.17363 1.2954,-0.56666 2.86019,2.25418 c 0,0 -2.30479,-3.15286 -3.17107,-4.31955 -0.86628,-1.16669 -3.46316,-3.9179296 -3.46316,-3.9179296 l 1.67001,-1.1296901 c 0,0 1.63478,3.0740697 6.1179,7.9689397 4.48313,4.89488 5.05908,5.88783 5.05908,5.88783 l -1.86402,0.98363 -5.62142,-4.41978 2.0915,4.66802 -1.56675,0.9117 c 0,0 -5.81703,-5.92591 -8.72555,-8.70631 -2.908518,-2.78041 -8.725552,-7.9760997 -8.725552,-7.9760997 z"
       id="path1339"
       sodipodi:nodetypes="czcccczcczccccczcc" />
    <path
       style="fill:#000000;stroke:none;stroke-width:0.264583px;stroke-linecap:butt;stroke-linejoin:miter;stroke-opacity:1"
       d="m 13.856583,6.5005433 c 0,0 6.092836,6.2477497 9.190889,9.3457997 l 9.758866,9.65559 -2.42681,1.34248 c 0,0 -1.514603,-0.82615 -2.271904,-1.23922 -0.757301,-0.41307 -2.271904,-1.23922 -2.271904,-1.23922 0,0 0.619611,1.34249 0.929416,2.01373 0.309806,0.67125 0.929417,2.01374 0.929417,2.01374 l -1.652296,1.03269 -6.454277,-2.94316 C 17.419343,25.656823 9.4123708,21.622013 9.4123708,21.622013 l 2.7653412,-1.63241 c 0,0 7.079696,3.70409 7.917752,4.00089 0.838056,0.2968 2.619741,0.92986 2.619741,0.92986 l -4.263179,-4.73675 1.652297,-1.13595 5.53524,2.69957 c 0,0 -3.257384,-3.93885 -5.864283,-6.38332 -2.606899,-2.44447 -8.810212,-7.8306797 -8.810212,-7.8306797 z"
       id="path1341"
       sodipodi:nodetypes="czccscscczcczcccczcc" />
    <path
       style="color:#000000;fill:#000000;-inkscape-stroke:none"
       d="m 41.196858,16.037383 2.02734,2.46295 c 0,0 2.00844,-0.20973 3.48817,-0.14143 1.47974,0.0683 2.74696,0.81863 3.26515,1.33446 1.60752,1.60017 1.67941,3.41362 1.10727,5.29444 -0.4995,1.64203 -2.97883,4.78672 -4.43208,6.2473 -1.14318,1.14894 -6.29517,5.31761 -8.97924,6.30547 -1.39869,0.51478 -3.62199,1.33275 -5.52495,1.61631 -4.029153,0.49072 -4.552314,-0.55222 -5.022242,-1.41754 -0.469928,-0.86533 -0.03045,-2.31137 1.324835,-3.86622 1.355287,-1.55484 4.269717,-2.84401 5.550097,-3.27002 1.28038,-0.42602 5.67064,-1.20117 5.95412,-0.0277 0.28348,1.17351 -0.75725,2.31841 -1.39412,2.69244 -0.63688,0.37404 -2.6432,1.42038 -3.31471,1.67356 -0.67151,0.25317 -2.61141,0.83611 -2.61141,0.83611 l 0.0444,0.97861 c 0,0 1.23326,0.0377 2.82838,-0.48931 1.59513,-0.52703 2.06627,-0.74804 3.11939,-1.32208 1.05313,-0.57405 2.13803,-1.63487 2.67919,-2.43953 0.54116,-0.80466 0.66648,-2.12014 0.0937,-3.05437 -0.5728,-0.93424 -2.4745,-1.37005 -3.56239,-1.33991 -1.08144,0.0359 -2.70695,0.17684 -4.76194,0.94286 -2.05499,0.76604 -5.420054,2.34903 -7.159326,4.90785 -0.818258,1.20383 -1.455772,2.63178 -1.3092,3.92834 0.146573,1.29655 1.100235,2.47324 2.433594,3.00195 1.562321,0.6195 3.443592,0.4266 5.533202,0.11523 2.08961,-0.31136 4.26762,-0.85661 5.9043,-1.45898 3.38665,-1.24644 8.42729,-4.44887 10.34375,-6.375 1.60638,-1.61448 4.77893,-4.77385 5.64549,-7.62256 0.79392,-2.6099 1.22909,-5.48082 -1.20961,-7.80286 -1.22067,-1.16227 -4.6855,-1.95141 -6.42416,-2.03161 -1.06717,-0.0511 -1.91743,-0.041 -2.79686,0.0302 -0.87943,0.0712 -2.84014,0.29101 -2.84014,0.29101 z"
       id="path1764"
       sodipodi:nodetypes="ccsssssczzzzzzcczzzzczssssssssczcc" />
    <path
       style="color:#000000;fill:#000000;-inkscape-stroke:none"
       d="m 17.363998,27.372893 -13.0539703,8.04847 c 7.8498393,1.55855 15.4598303,5.19424 20.9114793,9.0763 2.379026,1.76259 6.174181,5.63659 9.084591,8.94813 2.91041,3.311544 5.36473,6.752414 5.36473,6.752414 l 4.23948,-2.68114 c 0,0 -4.47077,-2.887634 -7.44989,-6.277344 -2.97912,-3.38972 -6.67215,-7.0539 -9.650143,-9.26026 -4.231951,-3.1354 -9.961371,-5.83631 -13.646732,-7.32373 l 8.286454,-5.80854 z"
       id="path6447"
       sodipodi:nodetypes="cccsccssccc" />
    <path
       style="color:#000000;fill:#000000;-inkscape-stroke:none"
       d="m 42.460028,38.397183 -4.04109,1.98425 c 0,0 8.66456,1.59634 12.43586,2.47447 3.7713,0.87813 10.19569,2.72454 10.19569,2.72454 l 3.53841,-2.62978 c 0,0 -8.40205,-1.49678 -12.08957,-2.26228 -3.68753,-0.7655 -10.0393,-2.2912 -10.0393,-2.2912 z"
       id="path7056"
       sodipodi:nodetypes="cczcczc" />
  </g>
</svg>
